<?xml version="1.0" standalone="no"?><!DOCTYPE svg PUBLIC "-//W3C//DTD SVG 1.1//EN" "http://www.w3.org/Graphics/SVG/1.1/DTD/svg11.dtd"><svg t="1499925111704" class="icon" style="" viewBox="0 0 1024 1024" version="1.1" xmlns="http://www.w3.org/2000/svg" p-id="2384" xmlns:xlink="http://www.w3.org/1999/xlink" width="200" height="200"><defs><style type="text/css"></style></defs><path d="M687.095 942.477c14.285-14.472 14.213-37.748-0.224-52.072l-380.777-377.322 379.158-382.586c14.324-14.472 14.218-37.749-0.218-52.113-14.478-14.33-37.788-14.218-52.118 0.219l-402.952 406.634c-0.623 0.629-0.77 1.439-1.36 2.062-0.145 0.152-0.331 0.185-0.478 0.332-7.109 7.182-10.683 16.577-10.683 25.93 0 9.464 3.647 18.967 10.902 26.149l406.634 402.953c14.476 14.363 37.788 14.252 52.117-0.186v0zM687.095 942.477z" p-id="2385"></path></svg>