<?xml version="1.0" standalone="no"?><!DOCTYPE svg PUBLIC "-//W3C//DTD SVG 1.1//EN" "http://www.w3.org/Graphics/SVG/1.1/DTD/svg11.dtd"><svg t="1498901900824" class="icon" style="" viewBox="0 0 1024 1024" version="1.1" xmlns="http://www.w3.org/2000/svg" p-id="3056" xmlns:xlink="http://www.w3.org/1999/xlink" width="200" height="200"><defs><style type="text/css"></style></defs><path d="M573.919235 620.507296c-89.703021 0-179.406043-0.001023-269.109064 0.001023-6.29845 0-7.845689 1.972934-6.613628 8.178263 2.780323 14.009062 5.284353 28.077475 8.340969 42.026162 2.117221 9.660011 8.622378 16.384156 16.510022 21.890566 7.913227 5.523807 17.101493 6.707772 26.27441 6.845918 21.99392 0.331551 43.99705 0.103354 65.99711 0.100284 154.848741-0.021489 309.697481-0.039909 464.546222-0.071631 11.831466-0.002047 20.957311 8.883321 19.47147 20.904099-0.892323 7.219425-6.339382 13.71435-14.19121 15.509229-3.457752 0.791016-7.080256 1.204431-10.628058 1.205455-177.701215 0.059352-355.402429 0.257873-533.101597-0.188288-23.163559-0.058328-42.410925-10.94426-57.384965-29.034267-11.470239-13.857613-15.289218-30.486338-18.22099-47.50392-2.223644-12.907984-4.131087-25.871227-6.331195-38.783305-2.62785-15.427364-5.371334-30.836309-8.151657-46.237067-2.236947-12.394285-4.691859-24.749684-6.887874-37.150108-2.37407-13.402241-4.470825-26.853601-6.851035-40.253796-2.737344-15.409968-5.694699-30.780027-8.481162-46.180785-3.211135-17.746176-6.417153-35.493375-9.478885-53.266158-2.225691-12.916171-4.078899-25.897833-6.347568-38.805818-2.296299-13.062504-5.034666-26.047236-7.329942-39.10974-2.445702-13.919011-4.483104-27.90863-6.91755-41.829687-2.137687-12.223393-4.691859-24.373107-6.854105-36.592406-2.373047-13.409404-4.170996-26.928303-6.860245-40.271192-1.896186-9.407254-2.321882-19.336394-7.828292-27.745924-7.408737-11.31572-17.353227-18.756179-31.335682-18.937305-19.267832-0.249687-38.540781-0.020466-57.811684-0.063445-11.090593-0.024559-18.394952-5.788843-20.61962-16.090467-2.188852-10.131755 5.344728-20.679995 15.677051-20.807908 23.527856-0.292666 47.072085-0.445138 70.590731 0.11768 14.080693 0.336668 26.015513 7.048533 37.055964 15.454994 12.907984 9.828856 21.50478 22.849404 26.133194 38.004569 3.309372 10.836813 4.266164 22.38687 6.363941 33.601282 1.436722 7.68196 2.753717 15.408945 4.753257 22.948665 0.49528 1.868557 3.247974 3.984754 5.29254 4.411473 3.603061 0.751107 7.458879 0.329505 11.209296 0.330528 207.544917 0.00614 415.089833-0.024559 622.635773 0.098237 9.995655 0.00614 20.207227 0.316202 29.92966 2.347464 12.165064 2.540869 23.433712 7.961322 33.015951 16.310477 16.293081 14.195304 25.593911 31.882128 26.832112 53.581336 0.754177 13.214976-2.945075 25.87839-5.094018 38.72293-4.045129 24.166399-8.179286 48.317449-12.408611 72.452125-3.699252 21.110807-7.66968 42.174542-11.348466 63.289442-2.601244 14.926968-4.798283 29.924543-7.391341 44.852534-2.300392 13.239536-4.54348 26.5067-7.458879 39.618323-3.323699 14.945387-11.600199 27.28646-23.346731 36.768415-7.169283 5.786797-15.274892 10.942213-23.765263 14.404058-7.554046 3.080152-16.213263 4.765537-24.393573 4.795213-89.361237 0.325411-178.723497 0.203638-268.085758 0.203638C573.919235 620.540042 573.919235 620.523669 573.919235 620.507296zM564.901861 271.721565c-105.910145 0-211.82029 0-317.730435 0.001023-1.87572 0-3.751441 0.024559-5.628184 0.023536-3.697205-0.00307-5.40408 1.817392-4.808516 5.484921 1.962701 12.095479 3.855818 24.204262 6.025227 36.263925 2.408863 13.389962 5.248537 26.702152 7.610328 40.099277 2.27481 12.906961 3.981684 25.915229 6.30152 38.814004 2.257413 12.549827 5.170766 24.981974 7.440459 37.530778 2.936889 16.234753 5.491061 32.53909 8.264221 48.803519 2.744507 16.099676 5.555529 32.187073 8.337899 48.28061 2.667759 15.431457 5.492084 30.837332 7.941879 46.303582 1.234107 7.794523 2.931772 9.645684 10.81737 9.645684 177.198771-0.00921 354.398566 0.010233 531.597337-0.138146 7.059789-0.00614 14.34573-0.780783 21.13025-2.642177 12.679787-3.477194 21.259186-12.157901 24.696472-24.809035 2.53166-9.320273 3.547803-19.049868 5.28947-28.589129 2.838651-15.553231 5.722328-31.098275 8.580422-46.648436 2.185782-11.894911 4.352121-23.792892 6.541997-35.68678 2.310625-12.550851 4.78191-25.074072 6.919597-37.654598 2.193968-12.919241 3.945869-25.913183 6.114255-38.836517 2.842745-16.940834 5.879917-33.849946 8.875135-50.765197 4.362354-24.63405-15.241123-45.802162-39.655162-45.688575C774.676561 272.002974 669.788699 271.722588 564.901861 271.721565z" p-id="3057"></path><path d="M803.851021 929.902902c-42.86732 1.613754-76.977185-34.586726-77.236082-74.823126-0.292666-45.585221 34.111912-78.42414 76.779687-78.381162 42.681078 0.042979 75.955926 32.05609 76.866668 75.874061C881.148501 895.229195 846.716294 930.732803 803.851021 929.902902zM803.327088 892.787586c20.723997 0.876973 39.959084-18.780739 39.34817-39.430034-0.621147-20.97573-16.338107-38.645159-39.364543-38.617529-22.307052 0.026606-39.042201 18.183128-39.243793 38.222533C763.842819 875.216395 781.243117 892.514363 803.327088 892.787586z" p-id="3058"></path><path d="M395.723763 929.903925c-41.419342 1.528819-77.243245-34.916231-76.238358-77.859275 0.9967-42.600237 35.116799-75.795267 77.199243-75.346035 42.469254 0.453325 75.885318 32.715099 76.212776 76.53614C473.210555 895.334595 440.171068 930.880159 395.723763 929.903925zM395.96424 814.837236c-19.262716-1.476631-39.847543 17.379832-39.041178 40.158628 0.729617 20.603247 17.882276 37.216623 39.005362 37.939077 19.221784 0.657986 39.906895-17.720593 39.030945-40.839127C434.273754 834.008878 418.188404 813.630758 395.96424 814.837236z" p-id="3059"></path><path d="M842.675258 853.358575c0.610914 20.649296-18.624173 40.305985-39.34817 39.430034-22.083971-0.273223-39.48427-17.571191-39.260166-39.825031" p-id="3060"></path></svg>