<?xml version="1.0" standalone="no"?><!DOCTYPE svg PUBLIC "-//W3C//DTD SVG 1.1//EN" "http://www.w3.org/Graphics/SVG/1.1/DTD/svg11.dtd"><svg t="1498901143235" class="icon" style="" viewBox="0 0 1024 1024" version="1.1" xmlns="http://www.w3.org/2000/svg" p-id="1014" xmlns:xlink="http://www.w3.org/1999/xlink" width="200" height="200"><defs><style type="text/css"></style></defs><path d="M366.790804 873.182063c-10.084683 0-18.288528-8.443299-18.288528-18.820648 0-10.379395 8.203846-18.823718 18.288528-18.823718l126.916575 0L493.707378 706.119139c0.103354-0.541329-0.033769-1.083681 0-1.614777l0-10.135848-8.899694-1.530866c-37.966707-5.952572-73.995271-24.238031-107.082854-54.348816-32.698726-29.756721-61.061704-69.641103-84.302011-118.547976l-3.445472-7.251148-7.762801 1.165546c-1.208525 0.182149-2.190899 0.457418-2.908236 0.659009l-0.222057 0.062422c-95.92984-0.281409-162.91137-81.724303-162.91137-198.129476 0-10.380418 8.206916-18.825764 18.293645-18.825764l101.379968 0-0.898463-11.917424c-1.740644-23.072485-2.551102-42.626843-2.551102-61.537542 0-17.631566 0.73678-36.059264 2.319835-57.994855 0.710175-9.757225 8.720615-17.401322 18.235316-17.401322l518.210445 0c9.513678 0 17.524119 7.647167 18.237363 17.409508 1.562589 21.149693 2.322905 40.116673 2.322905 57.986669 0 18.885116-0.812505 38.438451-2.556219 61.537542l-0.899486 11.917424 101.266381 0c10.087753 0 18.294668 8.445346 18.294668 18.825764 0 116.320239-66.966181 197.759039-162.864298 198.125383l-0.069585-0.020466c-0.722454-0.209778-1.723248-0.50142-2.957355-0.690732l-7.786337-1.196245-3.458775 7.272637c-23.26896 48.937572-51.650357 88.834234-84.356246 118.584815-33.101909 30.104645-69.148893 48.377824-107.139136 54.314023l-8.904811 1.520633 0 10.102079c0.033769 0.555655-0.105401 1.116427 0 1.666966l0 129.410372L657.202033 835.536674c10.087753 0 18.295692 8.444323 18.295692 18.823718 0 10.377348-8.207939 18.820648-18.295692 18.820648L366.790804 873.181039zM269.570575 196.983373c-0.398066 9.147334-0.591471 18.039865-0.591471 27.184129 0 56.746422 6.358825 112.305809 18.900465 165.135014 12.123109 51.058886 29.429263 97.226369 51.438533 137.218198 22.242584 40.415478 48.082088 72.321142 76.801177 94.832855 30.512944 23.916712 62.792115 36.042891 95.940073 36.042891 33.154098 0 65.435315-12.126178 95.948259-36.042891 28.720112-22.511713 54.558593-54.4184 76.79913-94.832855 22.008246-39.994899 39.312354-86.162382 51.43137-137.218198 12.539594-52.824089 18.896372-108.384499 18.896372-165.135014 0-8.405437-0.193405-17.285688-0.591471-27.14729l-0.427742-10.602476L270.032086 186.417737 269.570575 196.983373zM154.850787 347.779821c8.846482 68.979024 47.080272 116.342752 102.274338 126.697587l18.134009 3.402493-6.053879-17.915022c-12.059664-35.69292-21.321608-74.498738-27.53103-115.340935l-1.421372-9.351995-87.00661 0L154.850787 347.779821zM782.439362 344.614735c-6.294356 41.197284-15.555278 79.991846-27.52796 115.307166l-6.084579 17.946744 18.168802-3.423983c55.104015-10.380418 93.300966-57.728796 102.177124-126.659725l1.610684-12.514012L783.866874 335.270926 782.439362 344.614735z" p-id="1015"></path></svg>