<?xml version="1.0" standalone="no"?><!DOCTYPE svg PUBLIC "-//W3C//DTD SVG 1.1//EN" "http://www.w3.org/Graphics/SVG/1.1/DTD/svg11.dtd"><svg t="1500434829094" class="icon" style="" viewBox="0 0 1059 1024" version="1.1" xmlns="http://www.w3.org/2000/svg" p-id="1141" xmlns:xlink="http://www.w3.org/1999/xlink" width="206.8359375" height="200"><defs><style type="text/css"></style></defs><path d="M148.169697 916.29899c0 23.789899 171.183838 43.054545 382.319192 43.054545S912.808081 940.088889 912.808081 916.29899s-171.183838-43.054545-382.319192-43.054546-382.319192 19.264646-382.319192 43.054546z" fill="#C8C8C8" p-id="1142"></path><path d="M1059.167677 432.355556c0 92.961616-63.741414 502.949495-528.678788 502.949495s-528.678788-409.858586-528.678788-502.949495c0-92.961616 237.640404-15.515152 528.678788-15.515152 292.719192 0 528.678788-77.446465 528.678788 15.515152z" fill="#F49E2C" p-id="1143"></path><path d="M32.711111 432.355556c0-31.030303 27.539394-43.054545 75.765657-44.735354-67.10303-1.680808-108.476768 6.852525-108.476768 44.735354 1.680808 92.961616 65.422222 502.949495 530.488889 502.949495h15.515151c-449.551515-10.343434-513.292929-411.668687-513.292929-502.949495z" fill="#F8B66B" p-id="1144"></path><path d="M530.488889 675.167677c292.719192 0 528.678788-149.850505 528.678788-242.812121s-235.959596-15.515152-528.678788-15.515152-528.678788-75.765657-528.678788 15.515152c-0.129293 91.280808 235.830303 242.812121 528.678788 242.812121z" fill="#E4861F" p-id="1145"></path><path d="M1059.167677 432.355556c0 92.961616-237.640404 189.414141-528.678788 189.414141-292.719192 0-528.678788-96.452525-528.678788-189.414141s235.959596-15.515152 528.678788-15.515152 528.678788-77.446465 528.678788 15.515152z" fill="#F7DA2E" p-id="1146"></path><path d="M1059.167677 432.355556c0 92.961616-237.640404 189.414141-528.678788 189.414141-292.719192 0-528.678788-96.452525-528.678788-189.414141s206.610101 13.834343 499.458586 13.834343c292.719192-0.129293 557.89899-106.79596 557.89899-13.834343z" fill="#FFC50A" p-id="1147"></path><path d="M304.872727 489.115152l225.616162 132.654545c292.719192 0 528.678788-96.452525 528.678788-189.414141s-235.959596-15.515152-528.678788-15.515152l-225.616162 72.274748z" fill="#FFB40D" p-id="1148"></path><path d="M1059.167677 432.355556c0-92.961616-237.640404-15.515152-528.678788-15.515152l-225.616162 74.084849 754.29495-58.569697z" fill="#EEA209" p-id="1149"></path><path d="M406.49697 676.848485z m-13.834344 0c0 7.628283 6.206061 13.834343 13.834344 13.834343 7.628283 0 13.834343-6.206061 13.834343-13.834343 0-7.628283-6.206061-13.834343-13.834343-13.834344-7.628283 0.129293-13.834343 6.335354-13.834344 13.834344M489.115152 676.848485z m-13.834344 0c0 4.913131 2.585859 9.438384 6.852525 11.894949 4.266667 2.456566 9.567677 2.456566 13.834344 0 4.266667-2.456566 6.852525-6.981818 6.852525-11.894949 0-4.913131-2.585859-9.438384-6.852525-11.89495-4.266667-2.456566-9.567677-2.456566-13.834344 0-4.137374 2.456566-6.852525 6.981818-6.852525 11.89495M571.733333 676.848485z m-13.70505 0c0 7.628283 6.206061 13.834343 13.834343 13.834343 7.628283 0 13.834343-6.206061 13.834344-13.834343 0-7.628283-6.206061-13.834343-13.834344-13.834344-7.628283 0.129293-13.834343 6.335354-13.834343 13.834344M654.480808 676.848485z m-13.834343 0c0 7.628283 6.206061 13.834343 13.834343 13.834343 7.628283 0 13.834343-6.206061 13.834344-13.834343 0-7.628283-6.206061-13.834343-13.834344-13.834344-7.628283 0.129293-13.834343 6.335354-13.834343 13.834344" fill="#FFC50A" p-id="1150"></path><path d="M768.129293 459.894949c0 49.907071-106.79596 89.6-237.640404 89.6s-237.640404-39.563636-237.640404-89.6S399.515152 306.682828 530.488889 306.682828s237.640404 104.985859 237.640404 153.212121z" fill="#FFB40D" p-id="1151"></path><path d="M530.488889 549.494949c-130.844444 0-237.640404-39.563636-237.640404-89.6S399.515152 306.682828 530.488889 306.682828V549.494949z" fill="#FFC50A" p-id="1152"></path><path d="M460.541414 365.769697c21.462626-7.49899 40.339394-17.583838 49.260606-26.375758 9.050505-8.791919 6.852525-14.99798-5.688889-16.290909s-33.486869 2.585859-54.949495 10.084849-40.339394 17.583838-49.260606 26.375757c-9.050505 8.791919-6.852525 14.99798 5.688889 16.290909 12.412121 1.163636 33.357576-2.585859 54.949495-10.084848zM373.785859 389.30101z m-8.662627 0c0 3.10303 1.680808 5.947475 4.266667 7.49899 2.715152 1.551515 5.947475 1.551515 8.662626 0 2.715152-1.551515 4.266667-4.39596 4.266667-7.49899s-1.680808-5.947475-4.266667-7.49899c-2.715152-1.551515-5.947475-1.551515-8.662626 0-2.585859 1.551515-4.266667 4.39596-4.266667 7.49899M346.117172 409.987879z m-5.171717 0c0 2.844444 2.327273 5.171717 5.171717 5.171717s5.171717-2.327273 5.171717-5.171717-2.327273-5.171717-5.171717-5.171717-5.171717 2.327273-5.171717 5.171717M68.008081 425.50303c15.385859 1.163636 29.608081 0.387879 37.624242-2.327272 7.886869-2.585859 8.274747-6.464646 0.775758-10.343435-7.369697-3.749495-21.462626-6.852525-36.719192-8.016161-15.385859-1.163636-29.608081-0.387879-37.624243 2.327272-7.886869 2.585859-8.274747 6.464646-0.775757 10.343435s21.333333 6.723232 36.719192 8.016161z" fill="#F7DA2E" p-id="1153"></path><path d="M801.616162 236.476768l-17.325253-53.39798-17.19596 53.39798 17.19596-5.171717 17.325253 5.171717zM801.616162 270.99798l-17.325253 5.171717-17.19596-5.171717 17.19596 53.39798 17.325253-53.39798zM767.094949 236.476768L713.69697 253.80202l53.397979 17.19596-5.171717-17.19596 5.171717-17.325252zM801.616162 270.99798l53.268686-17.19596-53.268686-17.325252 5.171717 17.325252-5.171717 17.19596zM260.266667 251.474747l-10.343435-36.072727-12.024242 36.072727 12.024242-3.361616 10.343435 3.361616zM260.266667 273.842424l-10.343435 3.490909-12.024242-3.490909 12.024242 36.20202 10.343435-36.20202zM237.89899 251.474747l-36.20202 10.343435 36.20202 12.024242-3.490909-12.024242 3.490909-10.343435zM260.266667 273.842424l36.072727-12.024242-36.072727-10.343435 3.361616 10.343435-3.361616 12.024242zM343.531313 296.210101l-4.913131-17.19596-5.688889 17.19596 5.688889-1.680808 4.913131 1.680808zM343.531313 306.812121l-4.913131 1.680808-5.688889-1.680808 5.688889 17.19596 4.913131-17.19596zM332.929293 296.210101l-17.19596 4.913131 17.19596 5.688889-1.680808-5.688889 1.680808-4.913131zM343.531313 306.812121l17.19596-5.688889-17.19596-4.913131 1.680808 4.913131-1.680808 5.688889z" fill="#FFC50A" p-id="1154"></path></svg>