<?xml version="1.0" standalone="no"?><!DOCTYPE svg PUBLIC "-//W3C//DTD SVG 1.1//EN" "http://www.w3.org/Graphics/SVG/1.1/DTD/svg11.dtd"><svg t="1500434925443" class="icon" style="" viewBox="0 0 1024 1024" version="1.1" xmlns="http://www.w3.org/2000/svg" p-id="2349" xmlns:xlink="http://www.w3.org/1999/xlink" width="200" height="200"><defs><style type="text/css"></style></defs><path d="M693.47328 682.73152c-26.62912-7.38304-59.61728-19.75808-66.38592-26.53696-40.65792-40.00256-86.04672-89.50784-92.4672-103.9616l-5.0688-14.76096h125.04576c30.02368 0 65.56672-35.53792 65.56672-65.56672V94.57664c0-30.02368-35.53792-65.5616-65.56672-65.5616H360.3968c-30.02368 0-65.5616 35.53792-65.5616 65.5616V471.9104c0 30.0288 35.53792 65.56672 65.5616 65.56672h132.03968c-38.0928 51.48672-86.23616 108.42112-100.22912 114.64192-31.29344 7.14752-110.18752 57.3696-119.168 65.00864-17.34144 14.7456-1.12128 37.504 9.60512 52.57728 10.04032 14.09024 23.8336 31.32928 36.00896 46.53568 9.37472 11.71456 20.72576 25.90208 25.12896 32.384 0.03072 46.98112 2.99008 121.86112 20.59264 146.02752 3.3792 5.75488 10.52672 11.90912 25.65632 11.90912 21.58592 0 62.02368-12.12928 123.52-37.05856 13.96224 2.76992 56.43264 12.93824 105.41056 41.48224l7.97184 4.64384 8.64256-3.26144c13.25568-5.00224 36.53632-21.61664 39.69536-52.16768l0.18432-1.79712-0.14336-1.80736c-3.18464-38.3744-6.08768-84.04992-5.58592-95.4624 6.78912-13.2096 45.50144-76.01152 75.392-108.76416l4.56704-4.99712 0.46592-6.74816c0.10752-1.75616 2.26816-43.1616-56.6784-57.89184zM612.10112 67.80928h42.50112c8.7552 0 26.77248 18.01216 26.77248 26.77248V471.9104c0 8.7552-18.01728 26.77248-26.77248 26.77248h-42.50112V67.80928zM416.74752 498.67776H360.3968c-8.7552 0-26.77248-18.01216-26.77248-26.77248V94.57664c0-8.7552 18.01216-26.77248 26.77248-26.77248h56.35584v430.8736z m215.85408 350.53568c-1.43872 4.08576-4.11648 11.66848 3.87584 108.5184-1.10592 6.58432-4.64384 11.12576-8.00768 14.05952-62.16704-34.0224-112.16384-41.28256-114.36544-41.58976l-5.18144-0.72192-4.8384 1.98144c-71.00416 29.056-99.77856 35.1232-110.6944 36.12672-6.73792-17.51552-10.9824-75.49952-10.80832-123.8528l0.01024-2.95424-0.86528-2.82112c-2.2528-7.3216-8.6272-15.7696-32.78336-45.96224-11.55584-14.44352-30.95552-38.68672-40.18688-52.7104 23.41376-15.27808 75.37152-45.7728 92.20608-49.38752 23.96672-5.13536 71.3728-61.77792 106.624-107.97568 23.58784 33.69472 79.62112 89.44128 92.1856 101.80608 17.06496 17.07008 68.1216 32.16384 83.82976 36.5056 16.17408 4.03968 22.94272 9.92768 25.7792 14.04416-33.52064 39.54176-72.92928 104.0128-76.77952 114.93376z" p-id="2350"></path></svg>