<?xml version="1.0" standalone="no"?><!DOCTYPE svg PUBLIC "-//W3C//DTD SVG 1.1//EN" "http://www.w3.org/Graphics/SVG/1.1/DTD/svg11.dtd"><svg t="1500444971220" class="icon" style="" viewBox="0 0 1024 1024" version="1.1" xmlns="http://www.w3.org/2000/svg" p-id="7268" xmlns:xlink="http://www.w3.org/1999/xlink" width="200" height="200"><defs><style type="text/css"></style></defs><path d="M503.820202 357.255637c-26.39209 0-47.796586 21.442358-47.796586 47.89073s21.405519 47.891753 47.796586 47.891753c26.39209 0 47.77919-21.443381 47.77919-47.891753S530.212292 357.255637 503.820202 357.255637zM312.648185 357.255637c-26.393113 0-47.796586 21.442358-47.796586 47.89073s21.404496 47.891753 47.796586 47.891753c26.39209 0 47.797609-21.443381 47.797609-47.891753S339.040275 357.255637 312.648185 357.255637zM694.972776 357.255637c-26.39209 0-47.778166 21.442358-47.778166 47.89073s21.386076 47.891753 47.778166 47.891753S742.770386 431.594739 742.770386 405.146367 721.364867 357.255637 694.972776 357.255637zM857.471754 127.401622 169.2748 127.401622c-42.231847 0-76.468602 34.293037-76.468602 76.618005L92.806197 625.437585c0 42.323944 34.237779 76.618005 76.468602 76.618005L284.237111 702.05559 461.14117 879.30962c4.096295 4.111644 8.894577 7.087419 14.008039 8.94165l0 5.366218 19.107173 0c18.575054 0 34.062793-13.281491 37.512359-30.879288l0.722454-0.723477L532.491195 702.05559l324.980559 0c42.23287 0 76.469626-34.294061 76.469626-76.618005L933.94138 204.019627C933.94138 161.694659 899.704624 127.401622 857.471754 127.401622zM895.706567 625.437585c0 21.181415-17.127076 38.327934-38.233789 38.327934L494.256382 663.765519l0 182.377724-6.069229 6.084579L303.085388 666.75869l0-2.994194L169.2748 663.764496c-21.106714 0-38.234813-17.146519-38.234813-38.327934L131.039987 204.019627c0-21.162995 17.128099-38.32691 38.234813-38.32691l688.196954 0c21.106714 0 38.233789 17.163915 38.233789 38.32691L895.705544 625.437585z" p-id="7269"></path></svg>