<?xml version="1.0" standalone="no"?><!DOCTYPE svg PUBLIC "-//W3C//DTD SVG 1.1//EN" "http://www.w3.org/Graphics/SVG/1.1/DTD/svg11.dtd"><svg t="1500444865030" class="icon" style="" viewBox="0 0 1024 1024" version="1.1" xmlns="http://www.w3.org/2000/svg" p-id="4370" xmlns:xlink="http://www.w3.org/1999/xlink" width="200" height="200"><defs><style type="text/css"></style></defs><path d="M248.749876 649.820925" p-id="4371"></path><path d="M644.434753 907.633712 644.434753 907.633712c-16.133446 0-31.826869-6.689353-41.945321-17.862833-13.793144-15.116279-57.528228-54.465472-93.312222-54.465472-35.527145 0-79.93454 39.569204-92.686982 53.43705-10.106172 10.977006-25.677822 17.543561-41.651632 17.543561-7.608282 0-14.786775-1.470491-21.352307-4.361331l-1.152243-0.491187L243.561713 840.597947l-1.078565-0.735757c-19.809161-13.866822-27.342742-40.990576-17.542538-63.089897 0.084934-0.146333 10.045797-23.153326 10.045797-44.076868 0-63.60462-51.734268-115.325585-115.326609-115.325585l-3.846608 0c-0.233314 0-0.453325 0-0.698918 0-18.216897 0-33.040511-16.171308-37.769208-41.209564-0.391926-2.010797-9.29776-49.494251-9.29776-86.906326 0-37.425378 8.905834-84.920088 9.28548-86.929862 4.802376-25.358551 19.944238-41.651632 38.479383-41.210587l3.846608 0c63.59234 0 115.326609-51.733245 115.326609-115.301026 0-20.960381-9.959839-43.930535-10.058077-44.151569-9.812483-22.074761-2.217505-49.198515 17.677615-63.016219l1.12666-0.783853L358.533234 74.806753l1.188058-0.502443c6.468318-2.769067 13.548574-4.16588 21.058618-4.16588 15.937994 0 31.533181 6.4192 41.73759 17.162892 13.573133 14.235213 56.536644 51.231825 91.291193 51.231825 34.447557 0 77.128635-36.274158 90.665952-50.240241 10.156314-10.534937 25.640983-16.832364 41.419342-16.832364 7.656377 0 14.872732 1.445932 21.450545 4.287653l1.152243 0.5137 110.87932 61.59587 1.102101 0.771573c19.833721 13.855566 27.392884 40.966017 17.5804 63.078641-0.084934 0.170892-10.044774 23.141046-10.044774 44.101427 0 63.580061 51.733245 115.301026 115.314329 115.301026l3.857864 0c18.498306-0.416486 33.675984 15.852036 38.480406 41.210587 0.379647 2.009773 9.284457 49.492204 9.284457 86.929862 0 37.387515-8.904811 84.895529-9.284457 86.906326-4.803399 25.357528-19.96982 41.577954-38.480406 41.209564l-3.857864 0c-63.582107 0-115.314329 51.720965-115.314329 115.325585 0 20.923542 9.959839 43.905976 10.057053 44.125987 9.787924 22.074761 2.229784 49.174979-17.640776 63.017242l-1.102101 0.759293-112.754017 62.329581-1.175779 0.515746C658.940119 906.236899 651.895679 907.633712 644.434753 907.633712L644.434753 907.633712zM641.016911 854.490352c0.502443 0.342808 1.923816 0.906649 3.417843 0.906649 0.062422 0 0.110517 0 0.171915 0l105.34221-58.213843c-2.536776-5.930059-14.174837-34.595936-14.174837-64.487733 0-89.453335 70.453608-162.736385 158.7547-167.316703 1.287319-7.033184 8.18338-46.503127 8.18338-76.125795s-6.89606-69.092611-8.18338-76.124771c-88.301092-4.594645-158.7547-77.888951-158.7547-167.316703 0-29.953196 11.6749-58.668191 14.198374-64.523549L646.33401 123.71158c-0.122797-0.01228-0.270153-0.01228-0.442068-0.01228-1.76418 0-3.405563 0.636496-3.969405 1.003863-1.727341 1.787716-16.746406 17.027815-38.331004 32.193213-31.937386 22.479991-62.158688 33.872458-89.783863 33.872458-27.894304 0-58.349943-11.625782-90.482781-34.533514-21.720697-15.473413-36.800138-30.993898-38.552038-32.819476-0.538259-0.379647-2.217505-1.041726-3.992941-1.041726-0.159636 0-0.26913 0-0.379647 0.01228l-107.339704 58.96188c2.560312 5.979178 14.161534 34.595936 14.161534 64.463174 0 89.428775-70.453608 162.710802-158.765957 167.305447-1.27504 7.019881-8.1711 46.503127-8.1711 76.137051 0 29.597085 6.897084 69.068052 8.1711 76.125795 88.313372 4.580319 158.765957 77.863369 158.765957 167.316703 0 29.989011-11.724019 58.754149-14.210653 64.535829l101.593839 56.792471c0.073678 0.024559 0.135076 0.024559 0.233314 0.024559 1.481747 0 2.89084-0.538259 3.393283-0.857531 1.885953-2.058892 17.076934-18.107403 38.931684-34.131355 32.586163-23.88806 63.543222-35.966143 92.013647-35.966143 28.763091 0 59.941184 12.3247 92.723821 36.652781C623.878578 836.0647 639.106398 852.457042 641.016911 854.490352L641.016911 854.490352z" p-id="4372"></path><path d="M509.556856 642.212644c-84.675518 0-153.560398-68.871577-153.560398-153.548118 0-84.674495 68.883857-153.571654 153.560398-153.571654s153.560398 68.89716 153.560398 153.571654C663.117255 573.341067 594.232374 642.212644 509.556856 642.212644L509.556856 642.212644zM509.556856 387.329583c-55.874565 0-101.323687 45.461401-101.323687 101.334943 0 55.863309 45.450145 101.33699 101.323687 101.33699 55.875588 0 101.323687-45.473681 101.323687-101.33699C610.880543 432.790984 565.443701 387.329583 509.556856 387.329583L509.556856 387.329583z" p-id="4373"></path></svg>